STARTFONT 2.1
FONT -FontForge-LCD AT&T Phone Time/Date-Book-R-Normal--30-290-75-75-P-147-ISO10646-1
SIZE 29 75 75
FONTBOUNDINGBOX 22 21 0 0
COMMENT "Generated by fontforge, http://fontforge.sourceforge.net"
COMMENT "Typeface (c)NALGames. 2014. All Rights Reserved"
STARTPROPERTIES 41
FOUNDRY "FontForge"
FAMILY_NAME "LCD AT&T Phone Time/Date"
WEIGHT_NAME "Book"
SLANT "R"
SETWIDTH_NAME "Normal"
ADD_STYLE_NAME ""
PIXEL_SIZE 30
POINT_SIZE 290
RESOLUTION_X 75
RESOLUTION_Y 75
SPACING "P"
AVERAGE_WIDTH 147
CHARSET_REGISTRY "ISO10646"
CHARSET_ENCODING "1"
FONTNAME_REGISTRY ""
CHARSET_COLLECTIONS "Symbol ISO10646-1"
FONT_NAME "LCDAT&TPhoneTimeDate"
FACE_NAME "LCD AT&T Phone Time/Date"
COPYRIGHT "Typeface (c)NALGames. 2014. All Rights Reserved"
FONT_VERSION "1.00 June 3, 2015, initial release"
FONT_ASCENT 24
FONT_DESCENT 6
UNDERLINE_POSITION -4
UNDERLINE_THICKNESS 3
X_HEIGHT 18
CAP_HEIGHT 18
DEFAULT_CHAR 1
RAW_ASCENT 799
RAW_DESCENT 200
NORM_SPACE 7
RELATIVE_WEIGHT 40
RELATIVE_SETWIDTH 50
SUPERSCRIPT_X 0
SUPERSCRIPT_Y 14
SUPERSCRIPT_SIZE 19
SUBSCRIPT_X 0
SUBSCRIPT_Y 4
SUBSCRIPT_SIZE 19
FIGURE_WIDTH 13
AVG_LOWERCASE_WIDTH 130
AVG_UPPERCASE_WIDTH 130
ENDPROPERTIES
CHARS 210
STARTCHAR NULL.dup1
ENCODING 0
SWIDTH 0 0
DWIDTH 0 0
BBX 1 1 0 0
BITMAP
00
ENDCHAR
STARTCHAR NULL
ENCODING 29
SWIDTH 0 0
DWIDTH 0 0
BBX 1 1 0 0
BITMAP
00
ENDCHAR
STARTCHAR space
ENCODING 32
SWIDTH 248 0
DWIDTH 7 0
BBX 1 1 0 0
BITMAP
00
ENDCHAR
STARTCHAR exclam
ENCODING 33
SWIDTH 439 0
DWIDTH 13 0
BBX 3 18 9 1
BITMAP
40
E0
E0
E0
E0
E0
E0
60
40
40
60
E0
E0
E0
E0
E0
E0
40
ENDCHAR
STARTCHAR quotedbl
ENCODING 34
SWIDTH 439 0
DWIDTH 13 0
BBX 12 9 0 10
BITMAP
8020
C030
E070
E070
E070
E070
E070
C030
8020
ENDCHAR
STARTCHAR numbersign
ENCODING 35
SWIDTH 439 0
DWIDTH 13 0
BBX 12 19 0 0
BITMAP
8020
C070
E070
E070
E070
E070
E070
DFB0
BFE0
9FB0
C070
E070
E070
E070
E070
E070
DFB0
BFE0
7FC0
ENDCHAR
STARTCHAR dollar
ENCODING 36
SWIDTH 439 0
DWIDTH 13 0
BBX 12 21 0 0
BITMAP
3FC0
7FC0
9F80
C000
E000
E000
E000
E000
E000
DF80
BFC0
1FB0
0070
0070
0070
0070
0070
0070
1FB0
3FE0
7FC0
ENDCHAR
STARTCHAR percent
ENCODING 37
SWIDTH 439 0
DWIDTH 13 0
BBX 12 18 0 1
BITMAP
8020
C070
E070
E070
E070
E070
E070
DFB0
BFE0
9FA0
C030
E070
E070
E070
E070
E070
C070
8020
ENDCHAR
STARTCHAR ampersand
ENCODING 38
SWIDTH 439 0
DWIDTH 13 0
BBX 12 21 0 0
BITMAP
3FC0
7FC0
9FB0
C070
E070
E070
E070
E070
E070
DFB0
BFE0
9FB0
C070
E070
E070
E070
E070
E070
DFB0
BFE0
7FC0
ENDCHAR
STARTCHAR quotesingle
ENCODING 39
SWIDTH 439 0
DWIDTH 13 0
BBX 3 9 9 10
BITMAP
40
60
E0
E0
E0
E0
E0
60
40
ENDCHAR
STARTCHAR parenleft
ENCODING 40
SWIDTH 439 0
DWIDTH 13 0
BBX 10 21 0 0
BITMAP
3FC0
7FC0
9F80
C000
E000
E000
E000
E000
E000
C000
8000
8000
C000
E000
E000
E000
E000
E000
DF80
BFC0
7FC0
ENDCHAR
STARTCHAR parenright
ENCODING 41
SWIDTH 439 0
DWIDTH 13 0
BBX 11 21 1 0
BITMAP
7F80
FF80
3F60
00E0
00E0
00E0
00E0
00E0
00E0
0060
0040
0060
00E0
00E0
00E0
00E0
00E0
00E0
3F60
7FC0
FF80
ENDCHAR
STARTCHAR asterisk
ENCODING 42
SWIDTH 439 0
DWIDTH 13 0
BBX 12 18 0 1
BITMAP
8020
C070
E070
E070
E070
E070
E070
DFB0
BFE0
9FA0
C030
E070
E070
E070
E070
E070
C070
8020
ENDCHAR
STARTCHAR plus
ENCODING 43
SWIDTH 439 0
DWIDTH 13 0
BBX 10 18 2 1
BITMAP
0080
01C0
01C0
01C0
01C0
01C0
01C0
7EC0
FF80
7E80
00C0
01C0
01C0
01C0
01C0
01C0
01C0
0080
ENDCHAR
STARTCHAR comma
ENCODING 44
SWIDTH 439 0
DWIDTH 13 0
BBX 3 9 9 1
BITMAP
40
60
E0
E0
E0
E0
E0
60
40
ENDCHAR
STARTCHAR hyphen
ENCODING 45
SWIDTH 439 0
DWIDTH 13 0
BBX 8 3 2 9
BITMAP
7E
FF
7E
ENDCHAR
STARTCHAR period
ENCODING 46
SWIDTH 439 0
DWIDTH 13 0
BBX 9 3 1 0
BITMAP
3F00
7F80
FF80
ENDCHAR
STARTCHAR slash
ENCODING 47
SWIDTH 439 0
DWIDTH 13 0
BBX 12 18 0 1
BITMAP
0020
0070
0070
0070
0070
0070
0070
1FB0
3FE0
9F80
C000
E000
E000
E000
E000
E000
C000
8000
ENDCHAR
STARTCHAR zero
ENCODING 48
SWIDTH 439 0
DWIDTH 13 0
BBX 12 21 0 0
BITMAP
3FC0
7FC0
9FB0
C070
E070
E070
E070
E070
E070
C030
8020
8030
C070
E070
E070
E070
E070
E070
DFB0
BFE0
7FC0
ENDCHAR
STARTCHAR one
ENCODING 49
SWIDTH 439 0
DWIDTH 13 0
BBX 3 18 9 1
BITMAP
40
E0
E0
E0
E0
E0
E0
60
40
40
60
E0
E0
E0
E0
E0
E0
40
ENDCHAR
STARTCHAR two
ENCODING 50
SWIDTH 439 0
DWIDTH 13 0
BBX 12 21 0 0
BITMAP
3FC0
7FC0
1FB0
0070
0070
0070
0070
0070
0070
1FB0
3FE0
9F80
C000
E000
E000
E000
E000
E000
DF80
BFC0
7FC0
ENDCHAR
STARTCHAR three
ENCODING 51
SWIDTH 439 0
DWIDTH 13 0
BBX 11 21 1 0
BITMAP
7F80
FF80
3F60
00E0
00E0
00E0
00E0
00E0
00E0
3F60
7FC0
3F60
00E0
00E0
00E0
00E0
00E0
00E0
3F60
7FC0
FF80
ENDCHAR
STARTCHAR four
ENCODING 52
SWIDTH 439 0
DWIDTH 13 0
BBX 12 18 0 1
BITMAP
8020
C070
E070
E070
E070
E070
E070
DFB0
BFE0
1FA0
0030
0070
0070
0070
0070
0070
0070
0020
ENDCHAR
STARTCHAR five
ENCODING 53
SWIDTH 439 0
DWIDTH 13 0
BBX 12 21 0 0
BITMAP
3FC0
7FC0
9F80
C000
E000
E000
E000
E000
E000
DF80
BFC0
1FB0
0070
0070
0070
0070
0070
0070
1FB0
3FE0
7FC0
ENDCHAR
STARTCHAR six
ENCODING 54
SWIDTH 439 0
DWIDTH 13 0
BBX 12 21 0 0
BITMAP
3FC0
7FC0
9F80
C000
E000
E000
E000
E000
E000
DF80
BFC0
9FB0
C070
E070
E070
E070
E070
E070
DFB0
BFE0
7FC0
ENDCHAR
STARTCHAR seven
ENCODING 55
SWIDTH 439 0
DWIDTH 13 0
BBX 11 20 1 1
BITMAP
7F80
FF80
3F60
00E0
00E0
00E0
00E0
00E0
00E0
0060
0040
0040
0060
00E0
00E0
00E0
00E0
00E0
00E0
0040
ENDCHAR
STARTCHAR eight
ENCODING 56
SWIDTH 439 0
DWIDTH 13 0
BBX 12 21 0 0
BITMAP
3FC0
7FC0
9FB0
C070
E070
E070
E070
E070
E070
DFB0
BFE0
9FB0
C070
E070
E070
E070
E070
E070
DFB0
BFE0
7FC0
ENDCHAR
STARTCHAR nine
ENCODING 57
SWIDTH 439 0
DWIDTH 13 0
BBX 12 21 0 0
BITMAP
3FC0
7FC0
9FB0
C070
E070
E070
E070
E070
E070
DFB0
BFE0
1FB0
0070
0070
0070
0070
0070
0070
1FB0
3FE0
7FC0
ENDCHAR
STARTCHAR colon
ENCODING 58
SWIDTH 439 0
DWIDTH 13 0
BBX 3 12 4 4
BITMAP
60
E0
60
00
00
00
00
00
00
60
E0
60
ENDCHAR
STARTCHAR semicolon
ENCODING 59
SWIDTH 439 0
DWIDTH 13 0
BBX 3 12 4 4
BITMAP
60
E0
60
00
00
00
00
00
00
60
E0
60
ENDCHAR
STARTCHAR less
ENCODING 60
SWIDTH 439 0
DWIDTH 13 0
BBX 10 18 2 1
BITMAP
0080
01C0
01C0
01C0
01C0
01C0
01C0
7EC0
FF80
7E80
00C0
01C0
01C0
01C0
01C0
01C0
01C0
0080
ENDCHAR
STARTCHAR equal
ENCODING 61
SWIDTH 439 0
DWIDTH 13 0
BBX 9 12 1 0
BITMAP
3F00
7F80
3F00
0000
0000
0000
0000
0000
0000
3F00
7F80
FF80
ENDCHAR
STARTCHAR greater
ENCODING 62
SWIDTH 439 0
DWIDTH 13 0
BBX 10 18 0 1
BITMAP
8000
C000
E000
E000
E000
E000
E000
DF80
BFC0
9F80
C000
E000
E000
E000
E000
E000
C000
8000
ENDCHAR
STARTCHAR question
ENCODING 63
SWIDTH 439 0
DWIDTH 13 0
BBX 11 21 1 0
BITMAP
7F80
FF80
3F60
00E0
00E0
00E0
00E0
00E0
00E0
3F60
7FC0
3F00
0000
0000
0000
0000
0000
0000
3F00
7F80
FF80
ENDCHAR
STARTCHAR at
ENCODING 64
SWIDTH 439 0
DWIDTH 13 0
BBX 12 21 0 0
BITMAP
3FC0
7FC0
9FB0
C070
E070
E070
E070
E070
E070
DFB0
BFE0
9FB0
C070
E070
E070
E070
E070
E070
DFB0
BFE0
7FC0
ENDCHAR
STARTCHAR A
ENCODING 65
SWIDTH 439 0
DWIDTH 13 0
BBX 12 20 0 1
BITMAP
3FC0
7FC0
9FB0
C070
E070
E070
E070
E070
E070
DFB0
BFE0
9FA0
C030
E070
E070
E070
E070
E070
C070
8020
ENDCHAR
STARTCHAR B
ENCODING 66
SWIDTH 439 0
DWIDTH 13 0
BBX 12 19 0 0
BITMAP
8000
C000
E000
E000
E000
E000
E000
DF80
BFC0
9FB0
C070
E070
E070
E070
E070
E070
DFB0
BFE0
7FC0
ENDCHAR
STARTCHAR C
ENCODING 67
SWIDTH 439 0
DWIDTH 13 0
BBX 10 21 0 0
BITMAP
3FC0
7FC0
9F80
C000
E000
E000
E000
E000
E000
C000
8000
8000
C000
E000
E000
E000
E000
E000
DF80
BFC0
7FC0
ENDCHAR
STARTCHAR D
ENCODING 68
SWIDTH 439 0
DWIDTH 13 0
BBX 12 20 0 0
BITMAP
0020
0030
0070
0070
0070
0070
0070
0070
1FB0
3FE0
9FB0
C070
E070
E070
E070
E070
E070
DFB0
BFE0
7FC0
ENDCHAR
STARTCHAR E
ENCODING 69
SWIDTH 439 0
DWIDTH 13 0
BBX 10 21 0 0
BITMAP
3FC0
7FC0
9F80
C000
E000
E000
E000
E000
E000
DF80
BFC0
9F80
C000
E000
E000
E000
E000
E000
DF80
BFC0
7FC0
ENDCHAR
STARTCHAR F
ENCODING 70
SWIDTH 439 0
DWIDTH 13 0
BBX 10 20 0 1
BITMAP
3FC0
7FC0
9F80
C000
E000
E000
E000
E000
E000
DF80
BFC0
9F80
C000
E000
E000
E000
E000
E000
C000
8000
ENDCHAR
STARTCHAR G
ENCODING 71
SWIDTH 439 0
DWIDTH 13 0
BBX 12 21 0 0
BITMAP
3FC0
7FC0
9F80
C000
E000
E000
E000
E000
E000
C000
8000
8030
C070
E070
E070
E070
E070
E070
DFB0
BFE0
7FC0
ENDCHAR
STARTCHAR H
ENCODING 72
SWIDTH 439 0
DWIDTH 13 0
BBX 12 18 0 1
BITMAP
8020
C070
E070
E070
E070
E070
E070
DFB0
BFE0
9FA0
C030
E070
E070
E070
E070
E070
C070
8020
ENDCHAR
STARTCHAR I
ENCODING 73
SWIDTH 439 0
DWIDTH 13 0
BBX 3 18 9 1
BITMAP
40
E0
E0
E0
E0
E0
E0
60
40
40
60
E0
E0
E0
E0
E0
E0
40
ENDCHAR
STARTCHAR J
ENCODING 74
SWIDTH 439 0
DWIDTH 13 0
BBX 12 19 0 0
BITMAP
0020
0070
0070
0070
0070
0070
0070
0030
0020
8030
C070
E070
E070
E070
E070
E070
DFB0
BFE0
7FC0
ENDCHAR
STARTCHAR K
ENCODING 75
SWIDTH 439 0
DWIDTH 13 0
BBX 12 18 0 1
BITMAP
8020
C070
E070
E070
E070
E070
E070
DFB0
BFE0
9FA0
C030
E070
E070
E070
E070
E070
C070
8020
ENDCHAR
STARTCHAR L
ENCODING 76
SWIDTH 439 0
DWIDTH 13 0
BBX 10 19 0 0
BITMAP
8000
C000
E000
E000
E000
E000
E000
C000
8000
8000
C000
E000
E000
E000
E000
E000
DF80
BFC0
7FC0
ENDCHAR
STARTCHAR M
ENCODING 77
SWIDTH 439 0
DWIDTH 13 0
BBX 12 20 0 1
BITMAP
3FC0
7FC0
1F80
0000
0000
0000
0000
0000
0000
1F80
3FC0
9FA0
C030
E070
E070
E070
E070
E070
C070
8020
ENDCHAR
STARTCHAR N
ENCODING 78
SWIDTH 439 0
DWIDTH 13 0
BBX 12 11 0 1
BITMAP
1F80
3FC0
9FA0
C030
E070
E070
E070
E070
E070
C070
8020
ENDCHAR
STARTCHAR O
ENCODING 79
SWIDTH 439 0
DWIDTH 13 0
BBX 12 21 0 0
BITMAP
3FC0
7FC0
9FB0
C070
E070
E070
E070
E070
E070
C030
8020
8030
C070
E070
E070
E070
E070
E070
DFB0
BFE0
7FC0
ENDCHAR
STARTCHAR P
ENCODING 80
SWIDTH 439 0
DWIDTH 13 0
BBX 12 20 0 1
BITMAP
3FC0
7FC0
9FB0
C070
E070
E070
E070
E070
E070
DFB0
BFE0
9F80
C000
E000
E000
E000
E000
E000
C000
8000
ENDCHAR
STARTCHAR Q
ENCODING 81
SWIDTH 439 0
DWIDTH 13 0
BBX 12 20 0 1
BITMAP
3FC0
7FC0
9FB0
C070
E070
E070
E070
E070
E070
DFB0
BFE0
1FA0
0030
0070
0070
0070
0070
0070
0070
0020
ENDCHAR
STARTCHAR R
ENCODING 82
SWIDTH 439 0
DWIDTH 13 0
BBX 10 11 0 1
BITMAP
1F80
3FC0
9F80
C000
E000
E000
E000
E000
E000
C000
8000
ENDCHAR
STARTCHAR S
ENCODING 83
SWIDTH 439 0
DWIDTH 13 0
BBX 12 21 0 0
BITMAP
3FC0
7FC0
9F80
C000
E000
E000
E000
E000
E000
DF80
BFC0
1FB0
0070
0070
0070
0070
0070
0070
1FB0
3FE0
7FC0
ENDCHAR
STARTCHAR T
ENCODING 84
SWIDTH 439 0
DWIDTH 13 0
BBX 10 20 0 1
BITMAP
3FC0
7FC0
9F80
C000
E000
E000
E000
E000
E000
C000
8000
8000
C000
E000
E000
E000
E000
E000
C000
8000
ENDCHAR
STARTCHAR U
ENCODING 85
SWIDTH 439 0
DWIDTH 13 0
BBX 12 19 0 0
BITMAP
8020
C070
E070
E070
E070
E070
E070
C030
8020
8030
C070
E070
E070
E070
E070
E070
DFB0
BFE0
7FC0
ENDCHAR
STARTCHAR V
ENCODING 86
SWIDTH 439 0
DWIDTH 13 0
BBX 12 19 0 0
BITMAP
8020
C070
E070
E070
E070
E070
E070
C030
8020
8030
C070
E070
E070
E070
E070
E070
DFB0
BFE0
7FC0
ENDCHAR
STARTCHAR W
ENCODING 87
SWIDTH 439 0
DWIDTH 13 0
BBX 12 21 0 0
BITMAP
3FC0
7FC0
1F80
0000
0000
0000
0000
0000
0000
0000
0000
8030
C070
E070
E070
E070
E070
E070
DFB0
BFE0
7FC0
ENDCHAR
STARTCHAR X
ENCODING 88
SWIDTH 439 0
DWIDTH 13 0
BBX 12 18 0 1
BITMAP
8020
C070
E070
E070
E070
E070
E070
DFB0
BFE0
9FA0
C030
E070
E070
E070
E070
E070
C070
8020
ENDCHAR
STARTCHAR Y
ENCODING 89
SWIDTH 439 0
DWIDTH 13 0
BBX 12 19 0 0
BITMAP
8020
C070
E070
E070
E070
E070
E070
DFB0
BFE0
1FB0
0070
0070
0070
0070
0070
0070
1FB0
3FE0
7FC0
ENDCHAR
STARTCHAR Z
ENCODING 90
SWIDTH 439 0
DWIDTH 13 0
BBX 12 21 0 0
BITMAP
3FC0
7FC0
1FB0
0070
0070
0070
0070
0070
0070
1FB0
3FE0
9F80
C000
E000
E000
E000
E000
E000
DF80
BFC0
7FC0
ENDCHAR
STARTCHAR bracketleft
ENCODING 91
SWIDTH 439 0
DWIDTH 13 0
BBX 10 21 0 0
BITMAP
3FC0
7FC0
9F80
C000
E000
E000
E000
E000
E000
C000
8000
8000
C000
E000
E000
E000
E000
E000
DF80
BFC0
7FC0
ENDCHAR
STARTCHAR backslash
ENCODING 92
SWIDTH 439 0
DWIDTH 13 0
BBX 12 18 0 1
BITMAP
8000
C000
E000
E000
E000
E000
E000
DF80
BFC0
1FA0
0030
0070
0070
0070
0070
0070
0070
0020
ENDCHAR
STARTCHAR bracketright
ENCODING 93
SWIDTH 439 0
DWIDTH 13 0
BBX 11 21 1 0
BITMAP
7F80
FF80
3F60
00E0
00E0
00E0
00E0
00E0
00E0
0060
0040
0060
00E0
00E0
00E0
00E0
00E0
00E0
3F60
7FC0
FF80
ENDCHAR
STARTCHAR asciicircum
ENCODING 94
SWIDTH 439 0
DWIDTH 13 0
BBX 9 3 1 18
BITMAP
7F80
FF80
3F00
ENDCHAR
STARTCHAR underscore
ENCODING 95
SWIDTH 439 0
DWIDTH 13 0
BBX 9 3 1 0
BITMAP
3F00
7F80
FF80
ENDCHAR
STARTCHAR grave
ENCODING 96
SWIDTH 439 0
DWIDTH 13 0
BBX 3 9 9 10
BITMAP
40
60
E0
E0
E0
E0
E0
60
40
ENDCHAR
STARTCHAR a
ENCODING 97
SWIDTH 439 0
DWIDTH 13 0
BBX 12 20 0 1
BITMAP
3FC0
7FC0
9FB0
C070
E070
E070
E070
E070
E070
DFB0
BFE0
9FA0
C030
E070
E070
E070
E070
E070
C070
8020
ENDCHAR
STARTCHAR b
ENCODING 98
SWIDTH 439 0
DWIDTH 13 0
BBX 12 19 0 0
BITMAP
8000
C000
E000
E000
E000
E000
E000
DF80
BFC0
9FB0
C070
E070
E070
E070
E070
E070
DFB0
BFE0
7FC0
ENDCHAR
STARTCHAR c
ENCODING 99
SWIDTH 439 0
DWIDTH 13 0
BBX 10 21 0 0
BITMAP
3FC0
7FC0
9F80
C000
E000
E000
E000
E000
E000
C000
8000
8000
C000
E000
E000
E000
E000
E000
DF80
BFC0
7FC0
ENDCHAR
STARTCHAR d
ENCODING 100
SWIDTH 439 0
DWIDTH 13 0
BBX 12 20 0 0
BITMAP
0020
0030
0070
0070
0070
0070
0070
0070
1FB0
3FE0
9FB0
C070
E070
E070
E070
E070
E070
DFB0
BFE0
7FC0
ENDCHAR
STARTCHAR e
ENCODING 101
SWIDTH 439 0
DWIDTH 13 0
BBX 10 21 0 0
BITMAP
3FC0
7FC0
9F80
C000
E000
E000
E000
E000
E000
DF80
BFC0
9F80
C000
E000
E000
E000
E000
E000
DF80
BFC0
7FC0
ENDCHAR
STARTCHAR f
ENCODING 102
SWIDTH 439 0
DWIDTH 13 0
BBX 10 20 0 1
BITMAP
3FC0
7FC0
9F80
C000
E000
E000
E000
E000
E000
DF80
BFC0
9F80
C000
E000
E000
E000
E000
E000
C000
8000
ENDCHAR
STARTCHAR g
ENCODING 103
SWIDTH 439 0
DWIDTH 13 0
BBX 12 21 0 0
BITMAP
3FC0
7FC0
9F80
C000
E000
E000
E000
E000
E000
C000
8000
8030
C070
E070
E070
E070
E070
E070
DFB0
BFE0
7FC0
ENDCHAR
STARTCHAR h
ENCODING 104
SWIDTH 439 0
DWIDTH 13 0
BBX 12 18 0 1
BITMAP
8020
C070
E070
E070
E070
E070
E070
DFB0
BFE0
9FA0
C030
E070
E070
E070
E070
E070
C070
8020
ENDCHAR
STARTCHAR i
ENCODING 105
SWIDTH 439 0
DWIDTH 13 0
BBX 3 18 9 1
BITMAP
40
E0
E0
E0
E0
E0
E0
60
40
40
60
E0
E0
E0
E0
E0
E0
40
ENDCHAR
STARTCHAR j
ENCODING 106
SWIDTH 439 0
DWIDTH 13 0
BBX 12 19 0 0
BITMAP
0020
0070
0070
0070
0070
0070
0070
0030
0020
8030
C070
E070
E070
E070
E070
E070
DFB0
BFE0
7FC0
ENDCHAR
STARTCHAR k
ENCODING 107
SWIDTH 439 0
DWIDTH 13 0
BBX 12 18 0 1
BITMAP
8020
C070
E070
E070
E070
E070
E070
DFB0
BFE0
9FA0
C030
E070
E070
E070
E070
E070
C070
8020
ENDCHAR
STARTCHAR l
ENCODING 108
SWIDTH 439 0
DWIDTH 13 0
BBX 10 19 0 0
BITMAP
8000
C000
E000
E000
E000
E000
E000
C000
8000
8000
C000
E000
E000
E000
E000
E000
DF80
BFC0
7FC0
ENDCHAR
STARTCHAR m
ENCODING 109
SWIDTH 439 0
DWIDTH 13 0
BBX 12 20 0 1
BITMAP
3FC0
7FC0
1F80
0000
0000
0000
0000
0000
0000
1F80
3FC0
9FA0
C030
E070
E070
E070
E070
E070
C070
8020
ENDCHAR
STARTCHAR n
ENCODING 110
SWIDTH 439 0
DWIDTH 13 0
BBX 12 11 0 1
BITMAP
1F80
3FC0
9FA0
C030
E070
E070
E070
E070
E070
C070
8020
ENDCHAR
STARTCHAR o
ENCODING 111
SWIDTH 439 0
DWIDTH 13 0
BBX 12 21 0 0
BITMAP
3FC0
7FC0
9FB0
C070
E070
E070
E070
E070
E070
C030
8020
8030
C070
E070
E070
E070
E070
E070
DFB0
BFE0
7FC0
ENDCHAR
STARTCHAR p
ENCODING 112
SWIDTH 439 0
DWIDTH 13 0
BBX 12 20 0 1
BITMAP
3FC0
7FC0
9FB0
C070
E070
E070
E070
E070
E070
DFB0
BFE0
9F80
C000
E000
E000
E000
E000
E000
C000
8000
ENDCHAR
STARTCHAR q
ENCODING 113
SWIDTH 439 0
DWIDTH 13 0
BBX 12 20 0 1
BITMAP
3FC0
7FC0
9FB0
C070
E070
E070
E070
E070
E070
DFB0
BFE0
1FA0
0030
0070
0070
0070
0070
0070
0070
0020
ENDCHAR
STARTCHAR r
ENCODING 114
SWIDTH 439 0
DWIDTH 13 0
BBX 10 11 0 1
BITMAP
1F80
3FC0
9F80
C000
E000
E000
E000
E000
E000
C000
8000
ENDCHAR
STARTCHAR s
ENCODING 115
SWIDTH 439 0
DWIDTH 13 0
BBX 12 21 0 0
BITMAP
3FC0
7FC0
9F80
C000
E000
E000
E000
E000
E000
DF80
BFC0
1FB0
0070
0070
0070
0070
0070
0070
1FB0
3FE0
7FC0
ENDCHAR
STARTCHAR t
ENCODING 116
SWIDTH 439 0
DWIDTH 13 0
BBX 10 20 0 1
BITMAP
3FC0
7FC0
9F80
C000
E000
E000
E000
E000
E000
C000
8000
8000
C000
E000
E000
E000
E000
E000
C000
8000
ENDCHAR
STARTCHAR u
ENCODING 117
SWIDTH 439 0
DWIDTH 13 0
BBX 12 19 0 0
BITMAP
8020
C070
E070
E070
E070
E070
E070
C030
8020
8030
C070
E070
E070
E070
E070
E070
DFB0
BFE0
7FC0
ENDCHAR
STARTCHAR v
ENCODING 118
SWIDTH 439 0
DWIDTH 13 0
BBX 12 19 0 0
BITMAP
8020
C070
E070
E070
E070
E070
E070
C030
8020
8030
C070
E070
E070
E070
E070
E070
DFB0
BFE0
7FC0
ENDCHAR
STARTCHAR w
ENCODING 119
SWIDTH 439 0
DWIDTH 13 0
BBX 12 21 0 0
BITMAP
3FC0
7FC0
1F80
0000
0000
0000
0000
0000
0000
0000
0000
8030
C070
E070
E070
E070
E070
E070
DFB0
BFE0
7FC0
ENDCHAR
STARTCHAR x
ENCODING 120
SWIDTH 439 0
DWIDTH 13 0
BBX 12 18 0 1
BITMAP
8020
C070
E070
E070
E070
E070
E070
DFB0
BFE0
9FA0
C030
E070
E070
E070
E070
E070
C070
8020
ENDCHAR
STARTCHAR y
ENCODING 121
SWIDTH 439 0
DWIDTH 13 0
BBX 12 19 0 0
BITMAP
8020
C070
E070
E070
E070
E070
E070
DFB0
BFE0
1FB0
0070
0070
0070
0070
0070
0070
1FB0
3FE0
7FC0
ENDCHAR
STARTCHAR z
ENCODING 122
SWIDTH 439 0
DWIDTH 13 0
BBX 12 21 0 0
BITMAP
3FC0
7FC0
1FB0
0070
0070
0070
0070
0070
0070
1FB0
3FE0
9F80
C000
E000
E000
E000
E000
E000
DF80
BFC0
7FC0
ENDCHAR
STARTCHAR braceleft
ENCODING 123
SWIDTH 439 0
DWIDTH 13 0
BBX 10 21 0 0
BITMAP
3FC0
7FC0
9F80
C000
E000
E000
E000
E000
E000
C000
8000
8000
C000
E000
E000
E000
E000
E000
DF80
BFC0
7FC0
ENDCHAR
STARTCHAR bar
ENCODING 124
SWIDTH 439 0
DWIDTH 13 0
BBX 3 18 9 1
BITMAP
40
E0
E0
E0
E0
E0
E0
60
40
40
60
E0
E0
E0
E0
E0
E0
40
ENDCHAR
STARTCHAR braceright
ENCODING 125
SWIDTH 439 0
DWIDTH 13 0
BBX 11 21 1 0
BITMAP
7F80
FF80
3F60
00E0
00E0
00E0
00E0
00E0
00E0
0060
0040
0060
00E0
00E0
00E0
00E0
00E0
00E0
3F60
7FC0
FF80
ENDCHAR
STARTCHAR space.dup2
ENCODING 160
SWIDTH 248 0
DWIDTH 7 0
BBX 1 1 0 0
BITMAP
00
ENDCHAR
STARTCHAR exclamdown
ENCODING 161
SWIDTH 439 0
DWIDTH 13 0
BBX 3 18 9 1
BITMAP
40
E0
E0
E0
E0
E0
E0
60
40
40
60
E0
E0
E0
E0
E0
E0
40
ENDCHAR
STARTCHAR hyphen.001
ENCODING 173
SWIDTH 781 0
DWIDTH 23 0
BBX 18 3 2 9
BITMAP
7E1F80
FF3FC0
7E1F80
ENDCHAR
STARTCHAR questiondown
ENCODING 191
SWIDTH 439 0
DWIDTH 13 0
BBX 10 21 0 0
BITMAP
3FC0
7FC0
1F80
0000
0000
0000
0000
0000
0000
1F80
3FC0
9F80
C000
E000
E000
E000
E000
E000
DF80
BFC0
7FC0
ENDCHAR
STARTCHAR Agrave
ENCODING 192
SWIDTH 439 0
DWIDTH 13 0
BBX 12 20 0 1
BITMAP
3FC0
7FC0
9FB0
C070
E070
E070
E070
E070
E070
DFB0
BFE0
9FA0
C030
E070
E070
E070
E070
E070
C070
8020
ENDCHAR
STARTCHAR Aacute
ENCODING 193
SWIDTH 439 0
DWIDTH 13 0
BBX 12 20 0 1
BITMAP
3FC0
7FC0
9FB0
C070
E070
E070
E070
E070
E070
DFB0
BFE0
9FA0
C030
E070
E070
E070
E070
E070
C070
8020
ENDCHAR
STARTCHAR Acircumflex
ENCODING 194
SWIDTH 439 0
DWIDTH 13 0
BBX 12 20 0 1
BITMAP
3FC0
7FC0
9FB0
C070
E070
E070
E070
E070
E070
DFB0
BFE0
9FA0
C030
E070
E070
E070
E070
E070
C070
8020
ENDCHAR
STARTCHAR Atilde
ENCODING 195
SWIDTH 439 0
DWIDTH 13 0
BBX 12 20 0 1
BITMAP
3FC0
7FC0
9FB0
C070
E070
E070
E070
E070
E070
DFB0
BFE0
9FA0
C030
E070
E070
E070
E070
E070
C070
8020
ENDCHAR
STARTCHAR Adieresis
ENCODING 196
SWIDTH 439 0
DWIDTH 13 0
BBX 12 20 0 1
BITMAP
3FC0
7FC0
9FB0
C070
E070
E070
E070
E070
E070
DFB0
BFE0
9FA0
C030
E070
E070
E070
E070
E070
C070
8020
ENDCHAR
STARTCHAR Aring
ENCODING 197
SWIDTH 439 0
DWIDTH 13 0
BBX 12 20 0 1
BITMAP
3FC0
7FC0
9FB0
C070
E070
E070
E070
E070
E070
DFB0
BFE0
9FA0
C030
E070
E070
E070
E070
E070
C070
8020
ENDCHAR
STARTCHAR Ccedilla
ENCODING 199
SWIDTH 439 0
DWIDTH 13 0
BBX 10 21 0 0
BITMAP
3FC0
7FC0
9F80
C000
E000
E000
E000
E000
E000
C000
8000
8000
C000
E000
E000
E000
E000
E000
DF80
BFC0
7FC0
ENDCHAR
STARTCHAR Egrave
ENCODING 200
SWIDTH 439 0
DWIDTH 13 0
BBX 10 21 0 0
BITMAP
3FC0
7FC0
9F80
C000
E000
E000
E000
E000
E000
DF80
BFC0
9F80
C000
E000
E000
E000
E000
E000
DF80
BFC0
7FC0
ENDCHAR
STARTCHAR Eacute
ENCODING 201
SWIDTH 439 0
DWIDTH 13 0
BBX 10 21 0 0
BITMAP
3FC0
7FC0
9F80
C000
E000
E000
E000
E000
E000
DF80
BFC0
9F80
C000
E000
E000
E000
E000
E000
DF80
BFC0
7FC0
ENDCHAR
STARTCHAR Ecircumflex
ENCODING 202
SWIDTH 439 0
DWIDTH 13 0
BBX 10 21 0 0
BITMAP
3FC0
7FC0
9F80
C000
E000
E000
E000
E000
E000
DF80
BFC0
9F80
C000
E000
E000
E000
E000
E000
DF80
BFC0
7FC0
ENDCHAR
STARTCHAR Edieresis
ENCODING 203
SWIDTH 439 0
DWIDTH 13 0
BBX 10 21 0 0
BITMAP
3FC0
7FC0
9F80
C000
E000
E000
E000
E000
E000
DF80
BFC0
9F80
C000
E000
E000
E000
E000
E000
DF80
BFC0
7FC0
ENDCHAR
STARTCHAR Igrave
ENCODING 204
SWIDTH 439 0
DWIDTH 13 0
BBX 3 18 9 1
BITMAP
40
E0
E0
E0
E0
E0
E0
60
40
40
60
E0
E0
E0
E0
E0
E0
40
ENDCHAR
STARTCHAR Iacute
ENCODING 205
SWIDTH 439 0
DWIDTH 13 0
BBX 3 18 9 1
BITMAP
40
E0
E0
E0
E0
E0
E0
60
40
40
60
E0
E0
E0
E0
E0
E0
40
ENDCHAR
STARTCHAR Icircumflex
ENCODING 206
SWIDTH 439 0
DWIDTH 13 0
BBX 3 18 9 1
BITMAP
40
E0
E0
E0
E0
E0
E0
60
40
40
60
E0
E0
E0
E0
E0
E0
40
ENDCHAR
STARTCHAR Idieresis
ENCODING 207
SWIDTH 439 0
DWIDTH 13 0
BBX 3 18 9 1
BITMAP
40
E0
E0
E0
E0
E0
E0
60
40
40
60
E0
E0
E0
E0
E0
E0
40
ENDCHAR
STARTCHAR Ntilde
ENCODING 209
SWIDTH 439 0
DWIDTH 13 0
BBX 12 11 0 1
BITMAP
1F80
3FC0
9FA0
C030
E070
E070
E070
E070
E070
C070
8020
ENDCHAR
STARTCHAR Ograve
ENCODING 210
SWIDTH 439 0
DWIDTH 13 0
BBX 12 21 0 0
BITMAP
3FC0
7FC0
9FB0
C070
E070
E070
E070
E070
E070
C030
8020
8030
C070
E070
E070
E070
E070
E070
DFB0
BFE0
7FC0
ENDCHAR
STARTCHAR Oacute
ENCODING 211
SWIDTH 439 0
DWIDTH 13 0
BBX 12 21 0 0
BITMAP
3FC0
7FC0
9FB0
C070
E070
E070
E070
E070
E070
C030
8020
8030
C070
E070
E070
E070
E070
E070
DFB0
BFE0
7FC0
ENDCHAR
STARTCHAR Ocircumflex
ENCODING 212
SWIDTH 439 0
DWIDTH 13 0
BBX 12 21 0 0
BITMAP
3FC0
7FC0
9FB0
C070
E070
E070
E070
E070
E070
C030
8020
8030
C070
E070
E070
E070
E070
E070
DFB0
BFE0
7FC0
ENDCHAR
STARTCHAR Otilde
ENCODING 213
SWIDTH 439 0
DWIDTH 13 0
BBX 12 21 0 0
BITMAP
3FC0
7FC0
9FB0
C070
E070
E070
E070
E070
E070
C030
8020
8030
C070
E070
E070
E070
E070
E070
DFB0
BFE0
7FC0
ENDCHAR
STARTCHAR Odieresis
ENCODING 214
SWIDTH 439 0
DWIDTH 13 0
BBX 12 21 0 0
BITMAP
3FC0
7FC0
9FB0
C070
E070
E070
E070
E070
E070
C030
8020
8030
C070
E070
E070
E070
E070
E070
DFB0
BFE0
7FC0
ENDCHAR
STARTCHAR Oslash
ENCODING 216
SWIDTH 439 0
DWIDTH 13 0
BBX 12 21 0 0
BITMAP
3FC0
7FC0
9FB0
C070
E070
E070
E070
E070
E070
C030
8020
8030
C070
E070
E070
E070
E070
E070
DFB0
BFE0
7FC0
ENDCHAR
STARTCHAR Ugrave
ENCODING 217
SWIDTH 439 0
DWIDTH 13 0
BBX 12 19 0 0
BITMAP
8020
C070
E070
E070
E070
E070
E070
C030
8020
8030
C070
E070
E070
E070
E070
E070
DFB0
BFE0
7FC0
ENDCHAR
STARTCHAR Uacute
ENCODING 218
SWIDTH 439 0
DWIDTH 13 0
BBX 12 19 0 0
BITMAP
8020
C070
E070
E070
E070
E070
E070
C030
8020
8030
C070
E070
E070
E070
E070
E070
DFB0
BFE0
7FC0
ENDCHAR
STARTCHAR Ucircumflex
ENCODING 219
SWIDTH 439 0
DWIDTH 13 0
BBX 12 19 0 0
BITMAP
8020
C070
E070
E070
E070
E070
E070
C030
8020
8030
C070
E070
E070
E070
E070
E070
DFB0
BFE0
7FC0
ENDCHAR
STARTCHAR Udieresis
ENCODING 220
SWIDTH 439 0
DWIDTH 13 0
BBX 12 19 0 0
BITMAP
8020
C070
E070
E070
E070
E070
E070
C030
8020
8030
C070
E070
E070
E070
E070
E070
DFB0
BFE0
7FC0
ENDCHAR
STARTCHAR agrave
ENCODING 224
SWIDTH 439 0
DWIDTH 13 0
BBX 12 20 0 1
BITMAP
3FC0
7FC0
9FB0
C070
E070
E070
E070
E070
E070
DFB0
BFE0
9FA0
C030
E070
E070
E070
E070
E070
C070
8020
ENDCHAR
STARTCHAR aacute
ENCODING 225
SWIDTH 439 0
DWIDTH 13 0
BBX 12 20 0 1
BITMAP
3FC0
7FC0
9FB0
C070
E070
E070
E070
E070
E070
DFB0
BFE0
9FA0
C030
E070
E070
E070
E070
E070
C070
8020
ENDCHAR
STARTCHAR acircumflex
ENCODING 226
SWIDTH 439 0
DWIDTH 13 0
BBX 12 20 0 1
BITMAP
3FC0
7FC0
9FB0
C070
E070
E070
E070
E070
E070
DFB0
BFE0
9FA0
C030
E070
E070
E070
E070
E070
C070
8020
ENDCHAR
STARTCHAR atilde
ENCODING 227
SWIDTH 439 0
DWIDTH 13 0
BBX 12 20 0 1
BITMAP
3FC0
7FC0
9FB0
C070
E070
E070
E070
E070
E070
DFB0
BFE0
9FA0
C030
E070
E070
E070
E070
E070
C070
8020
ENDCHAR
STARTCHAR adieresis
ENCODING 228
SWIDTH 439 0
DWIDTH 13 0
BBX 12 20 0 1
BITMAP
3FC0
7FC0
9FB0
C070
E070
E070
E070
E070
E070
DFB0
BFE0
9FA0
C030
E070
E070
E070
E070
E070
C070
8020
ENDCHAR
STARTCHAR aring
ENCODING 229
SWIDTH 439 0
DWIDTH 13 0
BBX 12 20 0 1
BITMAP
3FC0
7FC0
9FB0
C070
E070
E070
E070
E070
E070
DFB0
BFE0
9FA0
C030
E070
E070
E070
E070
E070
C070
8020
ENDCHAR
STARTCHAR ccedilla
ENCODING 231
SWIDTH 439 0
DWIDTH 13 0
BBX 10 21 0 0
BITMAP
3FC0
7FC0
9F80
C000
E000
E000
E000
E000
E000
C000
8000
8000
C000
E000
E000
E000
E000
E000
DF80
BFC0
7FC0
ENDCHAR
STARTCHAR egrave
ENCODING 232
SWIDTH 439 0
DWIDTH 13 0
BBX 10 21 0 0
BITMAP
3FC0
7FC0
9F80
C000
E000
E000
E000
E000
E000
DF80
BFC0
9F80
C000
E000
E000
E000
E000
E000
DF80
BFC0
7FC0
ENDCHAR
STARTCHAR eacute
ENCODING 233
SWIDTH 439 0
DWIDTH 13 0
BBX 10 21 0 0
BITMAP
3FC0
7FC0
9F80
C000
E000
E000
E000
E000
E000
DF80
BFC0
9F80
C000
E000
E000
E000
E000
E000
DF80
BFC0
7FC0
ENDCHAR
STARTCHAR ecircumflex
ENCODING 234
SWIDTH 439 0
DWIDTH 13 0
BBX 10 21 0 0
BITMAP
3FC0
7FC0
9F80
C000
E000
E000
E000
E000
E000
DF80
BFC0
9F80
C000
E000
E000
E000
E000
E000
DF80
BFC0
7FC0
ENDCHAR
STARTCHAR edieresis
ENCODING 235
SWIDTH 439 0
DWIDTH 13 0
BBX 10 21 0 0
BITMAP
3FC0
7FC0
9F80
C000
E000
E000
E000
E000
E000
DF80
BFC0
9F80
C000
E000
E000
E000
E000
E000
DF80
BFC0
7FC0
ENDCHAR
STARTCHAR igrave
ENCODING 236
SWIDTH 439 0
DWIDTH 13 0
BBX 3 18 9 1
BITMAP
40
E0
E0
E0
E0
E0
E0
60
40
40
60
E0
E0
E0
E0
E0
E0
40
ENDCHAR
STARTCHAR iacute
ENCODING 237
SWIDTH 439 0
DWIDTH 13 0
BBX 3 18 9 1
BITMAP
40
E0
E0
E0
E0
E0
E0
60
40
40
60
E0
E0
E0
E0
E0
E0
40
ENDCHAR
STARTCHAR icircumflex
ENCODING 238
SWIDTH 439 0
DWIDTH 13 0
BBX 3 18 9 1
BITMAP
40
E0
E0
E0
E0
E0
E0
60
40
40
60
E0
E0
E0
E0
E0
E0
40
ENDCHAR
STARTCHAR idieresis
ENCODING 239
SWIDTH 439 0
DWIDTH 13 0
BBX 3 18 9 1
BITMAP
40
E0
E0
E0
E0
E0
E0
60
40
40
60
E0
E0
E0
E0
E0
E0
40
ENDCHAR
STARTCHAR ntilde
ENCODING 241
SWIDTH 439 0
DWIDTH 13 0
BBX 12 11 0 1
BITMAP
1F80
3FC0
9FA0
C030
E070
E070
E070
E070
E070
C070
8020
ENDCHAR
STARTCHAR ograve
ENCODING 242
SWIDTH 439 0
DWIDTH 13 0
BBX 12 21 0 0
BITMAP
3FC0
7FC0
9FB0
C070
E070
E070
E070
E070
E070
C030
8020
8030
C070
E070
E070
E070
E070
E070
DFB0
BFE0
7FC0
ENDCHAR
STARTCHAR oacute
ENCODING 243
SWIDTH 439 0
DWIDTH 13 0
BBX 12 21 0 0
BITMAP
3FC0
7FC0
9FB0
C070
E070
E070
E070
E070
E070
C030
8020
8030
C070
E070
E070
E070
E070
E070
DFB0
BFE0
7FC0
ENDCHAR
STARTCHAR ocircumflex
ENCODING 244
SWIDTH 439 0
DWIDTH 13 0
BBX 12 21 0 0
BITMAP
3FC0
7FC0
9FB0
C070
E070
E070
E070
E070
E070
C030
8020
8030
C070
E070
E070
E070
E070
E070
DFB0
BFE0
7FC0
ENDCHAR
STARTCHAR otilde
ENCODING 245
SWIDTH 439 0
DWIDTH 13 0
BBX 12 21 0 0
BITMAP
3FC0
7FC0
9FB0
C070
E070
E070
E070
E070
E070
C030
8020
8030
C070
E070
E070
E070
E070
E070
DFB0
BFE0
7FC0
ENDCHAR
STARTCHAR odieresis
ENCODING 246
SWIDTH 439 0
DWIDTH 13 0
BBX 12 21 0 0
BITMAP
3FC0
7FC0
9FB0
C070
E070
E070
E070
E070
E070
C030
8020
8030
C070
E070
E070
E070
E070
E070
DFB0
BFE0
7FC0
ENDCHAR
STARTCHAR oslash
ENCODING 248
SWIDTH 439 0
DWIDTH 13 0
BBX 12 21 0 0
BITMAP
3FC0
7FC0
9FB0
C070
E070
E070
E070
E070
E070
C030
8020
8030
C070
E070
E070
E070
E070
E070
DFB0
BFE0
7FC0
ENDCHAR
STARTCHAR ugrave
ENCODING 249
SWIDTH 439 0
DWIDTH 13 0
BBX 12 19 0 0
BITMAP
8020
C070
E070
E070
E070
E070
E070
C030
8020
8030
C070
E070
E070
E070
E070
E070
DFB0
BFE0
7FC0
ENDCHAR
STARTCHAR uacute
ENCODING 250
SWIDTH 439 0
DWIDTH 13 0
BBX 12 19 0 0
BITMAP
8020
C070
E070
E070
E070
E070
E070
C030
8020
8030
C070
E070
E070
E070
E070
E070
DFB0
BFE0
7FC0
ENDCHAR
STARTCHAR ucircumflex
ENCODING 251
SWIDTH 439 0
DWIDTH 13 0
BBX 12 19 0 0
BITMAP
8020
C070
E070
E070
E070
E070
E070
C030
8020
8030
C070
E070
E070
E070
E070
E070
DFB0
BFE0
7FC0
ENDCHAR
STARTCHAR udieresis
ENCODING 252
SWIDTH 439 0
DWIDTH 13 0
BBX 12 19 0 0
BITMAP
8020
C070
E070
E070
E070
E070
E070
C030
8020
8030
C070
E070
E070
E070
E070
E070
DFB0
BFE0
7FC0
ENDCHAR
STARTCHAR ydieresis
ENCODING 255
SWIDTH 439 0
DWIDTH 13 0
BBX 12 19 0 0
BITMAP
8020
C070
E070
E070
E070
E070
E070
DFB0
BFE0
1FB0
0070
0070
0070
0070
0070
0070
1FB0
3FE0
7FC0
ENDCHAR
STARTCHAR dotlessi
ENCODING 305
SWIDTH 439 0
DWIDTH 13 0
BBX 3 18 9 1
BITMAP
40
E0
E0
E0
E0
E0
E0
60
40
40
60
E0
E0
E0
E0
E0
E0
40
ENDCHAR
STARTCHAR Ydieresis
ENCODING 376
SWIDTH 439 0
DWIDTH 13 0
BBX 12 19 0 0
BITMAP
8020
C070
E070
E070
E070
E070
E070
DFB0
BFE0
1FB0
0070
0070
0070
0070
0070
0070
1FB0
3FE0
7FC0
ENDCHAR
STARTCHAR semicolon.dup3
ENCODING 894
SWIDTH 439 0
DWIDTH 13 0
BBX 3 12 4 4
BITMAP
60
E0
60
00
00
00
00
00
00
60
E0
60
ENDCHAR
STARTCHAR uniF001
ENCODING 61441
SWIDTH 523 0
DWIDTH 16 0
BBX 1 1 0 0
BITMAP
00
ENDCHAR
STARTCHAR uniF002
ENCODING 61442
SWIDTH 527 0
DWIDTH 16 0
BBX 1 1 0 0
BITMAP
00
ENDCHAR
STARTCHAR uniF001.dup4
ENCODING 64257
SWIDTH 523 0
DWIDTH 16 0
BBX 1 1 0 0
BITMAP
00
ENDCHAR
STARTCHAR uniF002.dup5
ENCODING 64258
SWIDTH 527 0
DWIDTH 16 0
BBX 1 1 0 0
BITMAP
00
ENDCHAR
STARTCHAR .notdef
ENCODING -1
SWIDTH 500 0
DWIDTH 15 0
BBX 13 21 1 0
BITMAP
FFF8
8008
8008
8708
9988
8188
8188
8188
8308
8208
8608
8408
8408
8408
8008
8408
8608
8408
8008
8008
FFF8
ENDCHAR
STARTCHAR nonmarkingreturn
ENCODING -1
SWIDTH 248 0
DWIDTH 7 0
BBX 1 1 0 0
BITMAP
00
ENDCHAR
STARTCHAR exclam.001
ENCODING -1
SWIDTH 439 0
DWIDTH 13 0
BBX 11 19 1 0
BITMAP
0040
00E0
00E0
00E0
00E0
00E0
00E0
0060
0040
0000
0000
0000
0000
0000
0000
0000
3F00
7F80
FF80
ENDCHAR
STARTCHAR dollar.001
ENCODING -1
SWIDTH 781 0
DWIDTH 23 0
BBX 22 21 0 0
BITMAP
3FCFF0
7FCFF8
9FB7E0
C03000
E03000
E03000
E03000
E03000
E03000
DFB7E0
BFCFF0
1FB7EC
00301C
00301C
00301C
00301C
00301C
00301C
1FB7EC
3FEFF8
7FCFF0
ENDCHAR
STARTCHAR percent.001
ENCODING -1
SWIDTH 781 0
DWIDTH 23 0
BBX 22 21 0 0
BITMAP
3FC000
7FC000
1F8004
00000C
00001C
00001C
00001C
00001C
00001C
1F87EC
3FCFF8
9F87E0
C00000
E00000
E00000
E00000
E00000
E00000
C007E0
800FF0
000FF8
ENDCHAR
STARTCHAR ampersand.001
ENCODING -1
SWIDTH 781 0
DWIDTH 23 0
BBX 21 21 0 0
BITMAP
3FC000
7FC000
9FB000
C03000
E03000
E03000
E03000
E03000
E03000
DFB7E0
BFCFF0
9FB7E0
C03000
E03000
E03000
E03000
E03000
E03000
DFB7E0
BFEFF0
7FCFF8
ENDCHAR
STARTCHAR asterisk.001
ENCODING -1
SWIDTH 781 0
DWIDTH 23 0
BBX 18 18 2 1
BITMAP
008000
00C000
00C000
00C000
00C000
00C000
00C000
7EDF80
FFBFC0
7E9F80
00C000
00C000
00C000
00C000
00C000
00C000
00C000
008000
ENDCHAR
STARTCHAR plus.001
ENCODING -1
SWIDTH 781 0
DWIDTH 23 0
BBX 18 18 2 1
BITMAP
008000
00C000
00C000
00C000
00C000
00C000
00C000
7EDF80
FFBFC0
7E9F80
00C000
00C000
00C000
00C000
00C000
00C000
00C000
008000
ENDCHAR
STARTCHAR slash.001
ENCODING -1
SWIDTH 781 0
DWIDTH 23 0
BBX 22 18 0 1
BITMAP
000004
00000C
00001C
00001C
00001C
00001C
00001C
1F87EC
3FCFF4
9F87E0
C00000
E00000
E00000
E00000
E00000
E00000
C00000
800000
ENDCHAR
STARTCHAR equal.001
ENCODING -1
SWIDTH 781 0
DWIDTH 23 0
BBX 20 12 1 0
BITMAP
3F0FC0
7F9FE0
3F0FC0
000000
000000
000000
000000
000000
000000
3F0FC0
7F9FE0
FF9FF0
ENDCHAR
STARTCHAR at.001
ENCODING -1
SWIDTH 781 0
DWIDTH 23 0
BBX 22 21 0 0
BITMAP
3FCFF0
7FCFF8
9F87E4
C0000C
E0001C
E0001C
E0001C
E0001C
E0001C
DF87EC
BFCFF8
9F87EC
C0001C
E0001C
E0001C
E0001C
E0001C
E0001C
DF87EC
BFCFF8
7FCFF0
ENDCHAR
STARTCHAR A.001
ENCODING -1
SWIDTH 781 0
DWIDTH 23 0
BBX 22 20 0 1
BITMAP
3FCFF0
7FCFF8
9F87E4
C0000C
E0001C
E0001C
E0001C
E0001C
E0001C
DF87EC
BFCFF8
9F87E4
C0000C
E0001C
E0001C
E0001C
E0001C
E0001C
C0000C
800004
ENDCHAR
STARTCHAR B.001
ENCODING -1
SWIDTH 781 0
DWIDTH 23 0
BBX 22 21 0 0
BITMAP
3FC000
7FC000
9FB000
C03000
E03000
E03000
E03000
E03000
E03000
DFB7E0
BFCFF0
9F87EC
C0001C
E0001C
E0001C
E0001C
E0001C
E0001C
DF87EC
BFCFF8
7FCFF0
ENDCHAR
STARTCHAR C.001
ENCODING -1
SWIDTH 781 0
DWIDTH 23 0
BBX 21 21 0 0
BITMAP
3FCFF0
7FCFF8
9F87E0
C00000
E00000
E00000
E00000
E00000
E00000
C00000
800000
800000
C00000
E00000
E00000
E00000
E00000
E00000
DF87E0
BFCFF0
7FCFF8
ENDCHAR
STARTCHAR D.001
ENCODING -1
SWIDTH 781 0
DWIDTH 23 0
BBX 22 21 0 0
BITMAP
3FCFF0
7FCFF8
9F87E4
C0000C
E0001C
E0001C
E0001C
E0001C
E0001C
C007EC
800FF8
8037E0
C03000
E03000
E03000
E03000
E03000
E03000
DFB000
BFE000
7FC000
ENDCHAR
STARTCHAR E.001
ENCODING -1
SWIDTH 781 0
DWIDTH 23 0
BBX 21 21 0 0
BITMAP
3FCFF0
7FCFF8
9F87E0
C00000
E00000
E00000
E00000
E00000
E00000
DF87E0
BFCFF0
9F87E0
C00000
E00000
E00000
E00000
E00000
E00000
DF87E0
BFCFF0
7FCFF8
ENDCHAR
STARTCHAR F.001
ENCODING -1
SWIDTH 781 0
DWIDTH 23 0
BBX 21 20 0 1
BITMAP
3FCFF0
7FCFF8
9F87E0
C00000
E00000
E00000
E00000
E00000
E00000
DF87E0
BFCFF0
9F87E0
C00000
E00000
E00000
E00000
E00000
E00000
C00000
800000
ENDCHAR
STARTCHAR G.001
ENCODING -1
SWIDTH 781 0
DWIDTH 23 0
BBX 22 21 0 0
BITMAP
3FCFF0
7FCFF8
9F87E0
C00000
E00000
E00000
E00000
E00000
E00000
C007E0
800FF0
8007EC
C0001C
E0001C
E0001C
E0001C
E0001C
E0001C
DF87EC
BFCFF8
7FCFF0
ENDCHAR
STARTCHAR H.001
ENCODING -1
SWIDTH 781 0
DWIDTH 23 0
BBX 22 18 0 1
BITMAP
800004
C0000C
E0001C
E0001C
E0001C
E0001C
E0001C
DF87EC
BFCFF4
9F87E4
C0000C
E0001C
E0001C
E0001C
E0001C
E0001C
C0000C
800004
ENDCHAR
STARTCHAR I.001
ENCODING -1
SWIDTH 781 0
DWIDTH 23 0
BBX 20 21 1 0
BITMAP
7F9FE0
FF9FF0
3F6FC0
006000
006000
006000
006000
006000
006000
006000
000000
006000
006000
006000
006000
006000
006000
006000
3F6FC0
7FDFE0
FF9FF0
ENDCHAR
STARTCHAR J.001
ENCODING -1
SWIDTH 781 0
DWIDTH 23 0
BBX 22 21 0 0
BITMAP
000FF0
000FF8
0007E4
00000C
00001C
00001C
00001C
00001C
00001C
00000C
000008
80000C
C0001C
E0001C
E0001C
E0001C
E0001C
E0001C
DF87EC
BFCFF8
7FCFF0
ENDCHAR
STARTCHAR K.001
ENCODING -1
SWIDTH 781 0
DWIDTH 23 0
BBX 22 19 0 0
BITMAP
800004
C0000C
E0001C
E0001C
E0001C
E0001C
E0001C
DF87EC
BFCFF4
9FB7E0
C03000
E03000
E03000
E03000
E03000
E03000
C037E0
800FF0
000FF8
ENDCHAR
STARTCHAR L.001
ENCODING -1
SWIDTH 781 0
DWIDTH 23 0
BBX 22 19 0 0
BITMAP
800000
C00000
E00000
E00000
E00000
E00000
E00000
C00000
800000
80000C
C0001C
E0001C
E0001C
E0001C
E0001C
E0001C
DF87EC
BFCFF8
7FCFF0
ENDCHAR
STARTCHAR M.001
ENCODING -1
SWIDTH 781 0
DWIDTH 23 0
BBX 22 20 0 1
BITMAP
3FCFF0
7FCFF8
9FB7E4
C0300C
E0301C
E0301C
E0301C
E0301C
E0301C
C0300C
800008
802004
C0300C
E0301C
E0301C
E0301C
E0301C
E0301C
C0300C
802004
ENDCHAR
STARTCHAR N.001
ENCODING -1
SWIDTH 781 0
DWIDTH 23 0
BBX 22 21 0 0
BITMAP
3FC000
7FC000
9FB004
C0300C
E0301C
E0301C
E0301C
E0301C
E0301C
C0300C
800008
80300C
C0301C
E0301C
E0301C
E0301C
E0301C
E0301C
C037EC
800FF8
000FF0
ENDCHAR
STARTCHAR O.001
ENCODING -1
SWIDTH 781 0
DWIDTH 23 0
BBX 22 21 0 0
BITMAP
3FCFF0
7FCFF8
9F87E4
C0000C
E0001C
E0001C
E0001C
E0001C
E0001C
C0000C
800008
80000C
C0001C
E0001C
E0001C
E0001C
E0001C
E0001C
DF87EC
BFCFF8
7FCFF0
ENDCHAR
STARTCHAR P.001
ENCODING -1
SWIDTH 781 0
DWIDTH 23 0
BBX 22 20 0 1
BITMAP
3FCFF0
7FCFF8
9F87E4
C0000C
E0001C
E0001C
E0001C
E0001C
E0001C
DF87EC
BFCFF8
9F87E0
C00000
E00000
E00000
E00000
E00000
E00000
C00000
800000
ENDCHAR
STARTCHAR Q.001
ENCODING -1
SWIDTH 781 0
DWIDTH 23 0
BBX 22 21 0 0
BITMAP
3FCFF0
7FCFF8
9F87E4
C0000C
E0001C
E0001C
E0001C
E0001C
E0001C
C0000C
800008
80300C
C0301C
E0301C
E0301C
E0301C
E0301C
E0301C
DFB7EC
BFEFF8
7FCFF0
ENDCHAR
STARTCHAR R.001
ENCODING -1
SWIDTH 781 0
DWIDTH 23 0
BBX 22 21 0 0
BITMAP
3FCFF0
7FCFF8
9F87E4
C0000C
E0001C
E0001C
E0001C
E0001C
E0001C
DF87EC
BFCFF8
9FB7E0
C03000
E03000
E03000
E03000
E03000
E03000
C037E0
800FF0
000FF8
ENDCHAR
STARTCHAR S.001
ENCODING -1
SWIDTH 781 0
DWIDTH 23 0
BBX 22 21 0 0
BITMAP
3FCFF0
7FCFF8
9F87E0
C00000
E00000
E00000
E00000
E00000
E00000
DF87E0
BFCFF0
1F87EC
00001C
00001C
00001C
00001C
00001C
00001C
1F87EC
3FCFF8
7FCFF0
ENDCHAR
STARTCHAR T.001
ENCODING -1
SWIDTH 781 0
DWIDTH 23 0
BBX 20 20 1 1
BITMAP
7F9FE0
FF9FF0
3F6FC0
006000
006000
006000
006000
006000
006000
006000
000000
004000
006000
006000
006000
006000
006000
006000
006000
004000
ENDCHAR
STARTCHAR U.001
ENCODING -1
SWIDTH 781 0
DWIDTH 23 0
BBX 22 19 0 0
BITMAP
800004
C0000C
E0001C
E0001C
E0001C
E0001C
E0001C
C0000C
800004
80000C
C0001C
E0001C
E0001C
E0001C
E0001C
E0001C
DF87EC
BFCFF8
7FCFF0
ENDCHAR
STARTCHAR V.001
ENCODING -1
SWIDTH 781 0
DWIDTH 23 0
BBX 22 19 0 0
BITMAP
800004
C0000C
E0001C
E0001C
E0001C
E0001C
E0001C
C007EC
800FF4
8037E0
C03000
E03000
E03000
E03000
E03000
E03000
DFB000
BFE000
7FC000
ENDCHAR
STARTCHAR W.001
ENCODING -1
SWIDTH 781 0
DWIDTH 23 0
BBX 22 19 0 0
BITMAP
802004
C0300C
E0301C
E0301C
E0301C
E0301C
E0301C
C0300C
802004
80300C
C0301C
E0301C
E0301C
E0301C
E0301C
E0301C
DFB7EC
BFEFF8
7FCFF0
ENDCHAR
STARTCHAR X.001
ENCODING -1
SWIDTH 781 0
DWIDTH 23 0
BBX 22 18 0 1
BITMAP
802000
C03000
E03000
E03000
E03000
E03000
E03000
DFB7E0
BFEFF0
1FA7E4
00300C
00301C
00301C
00301C
00301C
00301C
00300C
002004
ENDCHAR
STARTCHAR Y.001
ENCODING -1
SWIDTH 781 0
DWIDTH 23 0
BBX 22 19 0 0
BITMAP
800004
C0000C
E0001C
E0001C
E0001C
E0001C
E0001C
DF87EC
BFCFF4
1F87EC
00001C
00001C
00001C
00001C
00001C
00001C
1F87EC
3FCFF8
7FCFF0
ENDCHAR
STARTCHAR Z.001
ENCODING -1
SWIDTH 781 0
DWIDTH 23 0
BBX 22 21 0 0
BITMAP
3FCFF0
7FCFF8
1F87E4
00000C
00001C
00001C
00001C
00001C
00001C
1F87EC
3FCFF8
9F87E0
C00000
E00000
E00000
E00000
E00000
E00000
DF87E0
BFCFF0
7FCFF8
ENDCHAR
STARTCHAR backslash.001
ENCODING -1
SWIDTH 781 0
DWIDTH 23 0
BBX 22 18 0 1
BITMAP
800000
C00000
E00000
E00000
E00000
E00000
E00000
DF87E0
BFCFF0
1F87E4
00000C
00001C
00001C
00001C
00001C
00001C
00000C
000004
ENDCHAR
STARTCHAR underscore.001
ENCODING -1
SWIDTH 781 0
DWIDTH 23 0
BBX 20 3 1 0
BITMAP
3F0FC0
7F9FE0
FF9FF0
ENDCHAR
STARTCHAR b.001
ENCODING -1
SWIDTH 439 0
DWIDTH 13 0
BBX 12 21 0 0
BITMAP
3FC0
7FC0
9FB0
C070
E070
E070
E070
E070
E070
DFB0
BFE0
9FB0
C070
E070
E070
E070
E070
E070
DFB0
BFE0
7FC0
ENDCHAR
STARTCHAR d.001
ENCODING -1
SWIDTH 439 0
DWIDTH 13 0
BBX 11 21 1 0
BITMAP
7F80
FF80
3F60
00E0
00E0
00E0
00E0
00E0
00E0
0060
0040
0060
00E0
00E0
00E0
00E0
00E0
00E0
3F60
7FC0
FF80
ENDCHAR
STARTCHAR k.001
ENCODING -1
SWIDTH 439 0
DWIDTH 13 0
BBX 12 19 0 0
BITMAP
8020
C070
E070
E070
E070
E070
E070
DFB0
BFE0
9F80
C000
E000
E000
E000
E000
E000
DF80
BFC0
7FC0
ENDCHAR
STARTCHAR m.001
ENCODING -1
SWIDTH 439 0
DWIDTH 13 0
BBX 12 20 0 1
BITMAP
3FC0
7FC0
9FB0
C070
E070
E070
E070
E070
E070
C030
8020
8020
C030
E070
E070
E070
E070
E070
C070
8020
ENDCHAR
STARTCHAR n.001
ENCODING -1
SWIDTH 439 0
DWIDTH 13 0
BBX 12 20 0 1
BITMAP
3FC0
7FC0
9FB0
C070
E070
E070
E070
E070
E070
C030
8020
8020
C030
E070
E070
E070
E070
E070
C070
8020
ENDCHAR
STARTCHAR r.001
ENCODING -1
SWIDTH 439 0
DWIDTH 13 0
BBX 12 20 0 1
BITMAP
3FC0
7FC0
9FB0
C070
E070
E070
E070
E070
E070
C030
8020
8000
C000
E000
E000
E000
E000
E000
C000
8000
ENDCHAR
STARTCHAR t.001
ENCODING -1
SWIDTH 439 0
DWIDTH 13 0
BBX 11 20 1 1
BITMAP
7F80
FF80
3F60
00E0
00E0
00E0
00E0
00E0
00E0
0060
0040
0040
0060
00E0
00E0
00E0
00E0
00E0
00E0
0040
ENDCHAR
STARTCHAR v.001
ENCODING -1
SWIDTH 439 0
DWIDTH 13 0
BBX 12 18 0 1
BITMAP
8020
C070
E070
E070
E070
E070
E070
DFB0
BFE0
9F80
C000
E000
E000
E000
E000
E000
C000
8000
ENDCHAR
STARTCHAR w.001
ENCODING -1
SWIDTH 439 0
DWIDTH 13 0
BBX 12 19 0 0
BITMAP
8020
C070
E070
E070
E070
E070
E070
DFB0
BFE0
9FB0
C070
E070
E070
E070
E070
E070
DFB0
BFE0
7FC0
ENDCHAR
STARTCHAR uacute.001
ENCODING -1
SWIDTH 439 0
DWIDTH 13 0
BBX 12 19 0 0
BITMAP
8020
C070
E070
E070
E070
E070
E070
C030
8020
8030
C070
E070
E070
E070
E070
E070
DFB0
BFE0
7FC0
ENDCHAR
STARTCHAR underscore.002
ENCODING -1
SWIDTH 439 0
DWIDTH 13 0
BBX 9 3 1 0
BITMAP
3F00
7F80
FF80
ENDCHAR
ENDFONT
